{"title":"Piranha 3DD[2012]ENG[BRRip]Xvid-{RedDragon}","uid":7375627,"size":786073054,"categoryP":"video","categoryS":"movies","magnet":"?xt=urn:btih:6dce14b2eb39f56cd7015db478c6623682a56097&amp;dn=Piranha+3DD%5B2012%5DENG%5BBRRip%5DXvid-%7BRedDragon%7D&amp;tr=udp%3A%2F%2Ftracker.openbittorrent.com%3A80&amp;tr=udp%3A%2F%2Fopen.demonii.com%3A1337&amp;tr=udp%3A%2F%2Ftracker.coppersurfer.tk%3A6969&amp;tr=udp%3A%2F%2Fexodus.desync.com%3A6969","seeders":1,"leechers":0,"uploader":"RedDr4gon","files":13,"time":1340352049,"description":"\nGeneral.\n\nComplete name                    : Piranha 3DD[2012]ENG[BRRip]Xvid-{RedDragon}.mkv\nFormat                           : Matroska\nFile size                        : 750 MiB\nDuration                         : 1h 22mn\nOverall bit rate                 : 1,267 Kbps\nEncoded date                     : UTC 2012-06-21 13:28:30\nWriting application              : mkvmerge v4.4.0 ('Die Wiederkehr') built on Oct 31 2010 21:52:48\nWriting library                  : libebml v1.0.0 + libmatroska v1.0.0\nIMDB Link                        : http://www.imdb.com/title/tt1714203/\nIMDB Rating                      : 4.3/10\n\n\nVideo.\n\nID                               : 1\nFormat                           : AVC\nFormat/Info                      : Advanced Video Codec\nFormat profile                   : &lt;a class=&quot;__cf_email__&quot; href=&quot;/cdn-cgi/l/email-protection&quot; data-cfemail=&quot;d890b1bfb09894ecf6e8&quot;&gt;[email&amp;#160;protected]&lt;/a&gt;&lt;script cf-hash='f9e31' type=&quot;text/javascript&quot;&gt;\n/* &lt;![CDATA[ */!function(){try{var t=&quot;currentScript&quot;in document?document.currentScript:function(){for(var t=document.getElementsByTagName(&quot;script&quot;),e=t.length;e--;)if(t[e].getAttribute(&quot;cf-hash&quot;))return t[e]}();if(t&amp;&amp;t.previousSibling){var e,r,n,i,c=t.previousSibling,a=c.getAttribute(&quot;data-cfemail&quot;);if(a){for(e=&quot;&quot;,r=parseInt(a.substr(0,2),16),n=2;a.length-n;n+=2)i=parseInt(a.substr(n,2),16)^r,e+=String.fromCharCode(i);e=document.createTextNode(e),c.parentNode.replaceChild(e,c)}}}catch(u){}}();/* ]]&gt; */&lt;/script&gt;\nFormat settings, CABAC           : Yes\nFormat settings, ReFrames        : 3 frames\nFormat settings, GOP             : M=4, N=16\nMuxing mode                      : Container profile=&lt;a class=&quot;__cf_email__&quot; href=&quot;/cdn-cgi/l/email-protection&quot; data-cfemail=&quot;54013a3f3a3b233a14607a64&quot;&gt;[email&amp;#160;protected]&lt;/a&gt;&lt;script cf-hash='f9e31' type=&quot;text/javascript&quot;&gt;\n/* &lt;![CDATA[ */!function(){try{var t=&quot;currentScript&quot;in document?document.currentScript:function(){for(var t=document.getElementsByTagName(&quot;script&quot;),e=t.length;e--;)if(t[e].getAttribute(&quot;cf-hash&quot;))return t[e]}();if(t&amp;&amp;t.previousSibling){var e,r,n,i,c=t.previousSibling,a=c.getAttribute(&quot;data-cfemail&quot;);if(a){for(e=&quot;&quot;,r=parseInt(a.substr(0,2),16),n=2;a.length-n;n+=2)i=parseInt(a.substr(n,2),16)^r,e+=String.fromCharCode(i);e=document.createTextNode(e),c.parentNode.replaceChild(e,c)}}}catch(u){}}();/* ]]&gt; */&lt;/script&gt;\nCodec ID                         : V_MPEG4/ISO/AVC\nDuration                         : 1h 22mn\nBit rate                         : 1 138 Kbps\nWidth                            : 640 pixels\nHeight                           : 352 pixels\nDisplay aspect ratio             : 16:9\nFrame rate                       : 23.976 fps\nColor space                      : YUV\nChroma subsampling               : 4:2:0\nBit depth                        : 8 bits\nScan type                        : Progressive\nBits/(Pixel*Frame)               : 0.211\nStream size                      : 659 MiB (88%)\nWriting library                  : x264 core 112 r1867 22bfd31\n\n\nAudio.\n\nID                               : 2\nFormat                           : MPEG Audio\nFormat version                   : Version 1\nFormat profile                   : Layer 3\nMode                             : Joint stereo\nMode extension                   : MS Stereo\nCodec ID                         : A_MPEG/L3\nCodec ID/Hint                    : MP3\nDuration                         : 1h 22mn\nBit rate mode                    : Constant\nBit rate                         : 128 Kbps\nChannel(s)                       : 2 channels\nSampling rate                    : 48.0 KHz\nStream size                      : 75.7 MiB (10%)\nWriting library                  : LAME3.98r\nEncoding settings                : -m j -V 4 -q 3 -lowpass 17 -b 128\n\n\nScreens:\n\n\n","torrent":{"xt":"urn:btih:6dce14b2eb39f56cd7015db478c6623682a56097","amp;dn":"Piranha+3DD%5B2012%5DENG%5BBRRip%5DXvid-%7BRedDragon%7D","amp;tr":["udp%3A%2F%2Ftracker.openbittorrent.com%3A80","udp%3A%2F%2Fopen.demonii.com%3A1337","udp%3A%2F%2Ftracker.coppersurfer.tk%3A6969","udp%3A%2F%2Fexodus.desync.com%3A6969"],"infoHash":"6dce14b2eb39f56cd7015db478c6623682a56097","infoHashBuffer":{"type":"Buffer","data":[109,206,20,178,235,57,245,108,215,1,93,180,120,198,98,54,130,165,96,151]},"announce":[],"urlList":[]}}